<svg xmlns="http://www.w3.org/2000/svg" xml:space="preserve" viewBox="0 0 192 192">
<path
  d="m 179.28157,91.485803 q 0,21.785447 -5.10167,39.158687 -5.10164,17.3732 -15.30495,29.64474 -10.20333,12.27157 -25.5083,18.88993 -15.16708,6.48047 -35.573692,6.48047 -20.130874,0 -34.884306,-5.92895 -14.615567,-5.92894 -24.267337,-17.37321 -9.513904,-11.58214 -14.201911,-28.5417 -4.688019,-16.95956 -4.688019,-38.882901 0,-21.23391 5.101651,-38.331364 Q 29.954699,39.366179 40.158014,27.370401 50.361339,15.236731 65.666293,8.6183662 80.971271,2.0000006 101.37789,2.0000006 q 19.30358,0 33.91913,5.7910516 14.75343,5.7910758 24.54309,17.0974558 9.78969,11.306378 14.61556,28.128048 4.82591,16.68381 4.8259,38.469247 z m -24.95677,1.654614 q 0,-15.167109 -2.75764,-28.128065 -2.61976,-12.960968 -8.96235,-22.474868 -6.20472,-9.513901 -16.68381,-14.891335 -10.47907,-5.377407 -25.921922,-5.377407 -15.442855,0 -25.921935,5.791075 -10.479081,5.791056 -17.097442,15.44285 -6.480484,9.651782 -9.376027,22.612739 -2.757642,12.823096 -2.757642,27.162881 0,15.718623 2.619776,28.955353 2.619765,13.09883 8.824482,22.75064 6.204718,9.51388 16.545909,14.89131 10.479081,5.23953 26.197691,5.23953 15.58071,0 26.1977,-5.79105 10.61694,-5.92898 17.09744,-15.71864 6.48047,-9.92752 9.23813,-22.88849 2.75764,-13.09887 2.75764,-27.576523 z M 130.609,91.899448 q 0,2.619777 -0.27576,4.412251 -0.27577,1.792474 -0.96517,3.033411 -0.55154,1.24096 -1.51672,1.79247 -0.82729,0.55155 -1.79244,0.55155 H 72.422555 q -1.103066,0 -1.930377,-0.55155 -0.827288,-0.55151 -1.516698,-1.79247 -0.551522,-1.240937 -0.827288,-3.033411 -0.275778,-1.792474 -0.275778,-4.412251 0,-2.619766 0.275778,-4.41224 0.275766,-1.930346 0.827288,-3.033411 0.68941,-1.240936 1.516698,-1.792475 0.827311,-0.551516 1.930377,-0.551516 h 53.636355 q 0.96515,0 1.79244,0.551516 0.96518,0.551539 1.51672,1.792475 0.6894,1.103065 0.96517,3.033411 0.27576,1.792474 0.27576,4.41224 z"
  id="text1"
  style="font-size:120px;font-family:Calibri;-inkscape-font-specification:'Calibri, Normal';white-space:pre;fill:#151519;fill-opacity:1;stroke:#fcb863;stroke-width:0;stroke-dashoffset:1.07136;paint-order:stroke fill markers"
  aria-label="Θ" />
</svg>
